<svg width="19" height="18" viewBox="0 0 19 18" fill="none" xmlns="http://www.w3.org/2000/svg">
<ellipse cx="9.59205" cy="8.90304" rx="9.40748" ry="8.84616" fill="#EB8671"/>
<path d="M13.325 9.5775C13.325 10.5225 13.2225 11.345 13.0175 12.045C12.8175 12.74 12.5375 13.315 12.1775 13.77C11.8225 14.225 11.4 14.565 10.91 14.79C10.425 15.01 9.9 15.12 9.335 15.12C8.77 15.12 8.245 15.01 7.76 14.79C7.28 14.565 6.8625 14.225 6.5075 13.77C6.1525 13.315 5.875 12.74 5.675 12.045C5.475 11.345 5.375 10.5225 5.375 9.5775C5.375 8.6275 5.475 7.805 5.675 7.11C5.875 6.415 6.1525 5.84 6.5075 5.385C6.8625 4.93 7.28 4.5925 7.76 4.3725C8.245 4.1475 8.77 4.035 9.335 4.035C9.9 4.035 10.425 4.1475 10.91 4.3725C11.4 4.5925 11.8225 4.93 12.1775 5.385C12.5375 5.84 12.8175 6.415 13.0175 7.11C13.2225 7.805 13.325 8.6275 13.325 9.5775ZM11.4125 9.5775C11.4125 8.7925 11.355 8.1425 11.24 7.6275C11.125 7.1125 10.97 6.7025 10.775 6.3975C10.585 6.0925 10.365 5.88 10.115 5.76C9.865 5.635 9.605 5.5725 9.335 5.5725C9.07 5.5725 8.8125 5.635 8.5625 5.76C8.3175 5.88 8.1 6.0925 7.91 6.3975C7.72 6.7025 7.5675 7.1125 7.4525 7.6275C7.3425 8.1425 7.2875 8.7925 7.2875 9.5775C7.2875 10.3625 7.3425 11.0125 7.4525 11.5275C7.5675 12.0425 7.72 12.4525 7.91 12.7575C8.1 13.0625 8.3175 13.2775 8.5625 13.4025C8.8125 13.5225 9.07 13.5825 9.335 13.5825C9.605 13.5825 9.865 13.5225 10.115 13.4025C10.365 13.2775 10.585 13.0625 10.775 12.7575C10.97 12.4525 11.125 12.0425 11.24 11.5275C11.355 11.0125 11.4125 10.3625 11.4125 9.5775Z" fill="#FFF0E4"/>
</svg>
