<svg width="46" height="33" viewBox="0 0 46 33" fill="none" xmlns="http://www.w3.org/2000/svg">
<path id="cartIconPath" d="M44.5519 7.00546C44.0539 6.441 43.3145 6.11446 42.5345 6.11446H13.0228L12.7365 4.7156C12.5538 3.82233 11.8628 3.09657 10.939 2.82711L3.39851 0.627567C2.01594 0.224512 0.547194 0.951451 0.118354 2.25172C-0.310486 3.55188 0.462684 4.9328 1.84546 5.33615L7.88528 7.09784L12.4887 26.0901C12.6491 26.8935 13.2133 27.544 13.9612 27.8709C13.939 28.0397 13.9263 28.2113 13.9263 28.3857C13.9263 30.6877 15.9179 32.5604 18.3659 32.5604C20.8138 32.5604 22.8055 30.6876 22.8055 28.3857C22.8055 28.2896 22.8007 28.1946 22.7939 28.1002H29.8027C29.7959 28.1946 29.7911 28.2897 29.7911 28.3857C29.7911 30.6877 31.7828 32.5604 34.2307 32.5604C36.6788 32.5604 38.6704 30.6876 38.6704 28.3857C38.6704 28.2828 38.665 28.181 38.6573 28.08C39.7789 27.9522 40.704 27.1566 40.917 26.09L45.111 9.03424C45.2547 8.31351 45.0499 7.56991 44.5519 7.00546ZM18.3659 30.4187C17.1736 30.4187 16.2036 29.5066 16.2036 28.3855C16.2036 27.2644 17.1736 26.3523 18.3659 26.3523C19.5581 26.3523 20.5281 27.2644 20.5281 28.3855C20.5281 29.5066 19.5581 30.4187 18.3659 30.4187ZM34.2306 30.4187C33.0384 30.4187 32.0684 29.5066 32.0684 28.3855C32.0684 27.2644 33.0384 26.3523 34.2306 26.3523C35.4229 26.3523 36.3929 27.2644 36.3929 28.3855C36.3929 29.5066 35.4228 30.4187 34.2306 30.4187ZM35.7542 21.961H17.7897C16.9211 21.961 16.2169 21.2988 16.2169 20.4821C16.2169 19.6653 16.9211 19.0031 17.7897 19.0031H35.7542C36.6228 19.0031 37.327 19.6653 37.327 20.4821C37.327 21.2988 36.6228 21.961 35.7542 21.961ZM35.7542 14.0734H17.7897C16.9211 14.0734 16.2169 13.4112 16.2169 12.5945C16.2169 11.7777 16.9211 11.1156 17.7897 11.1156H35.7542C36.6228 11.1156 37.327 11.7777 37.327 12.5945C37.327 13.4112 36.6228 14.0734 35.7542 14.0734Z" fill="#EB8671"/>
</svg>
