<svg width="38" height="38" viewBox="0 0 38 38" fill="none" xmlns="http://www.w3.org/2000/svg">
<path id="profileIconPath" d="M23.6001 25.1334V22.0667C24.2901 21.7248 26.2635 19.3757 26.4705 17.5403C27.0133 17.4989 27.8658 17.0006 28.1173 15.0333C28.2522 13.9768 27.7156 13.3834 27.3905 13.1964C27.3905 13.1964 28.2001 11.6584 28.2001 9.80156C28.2001 6.07863 26.7388 2.90156 23.6001 2.90156C23.6001 2.90156 22.5099 0.601562 19.0001 0.601562C12.4957 0.601562 9.8001 4.77376 9.8001 9.80156C9.8001 11.4944 10.6097 13.1964 10.6097 13.1964C10.2846 13.3834 9.74796 13.9784 9.8829 15.0333C10.1344 17.0006 10.9869 17.4989 11.5297 17.5403C11.7367 19.3757 13.7101 21.7248 14.4001 22.0667V25.1334C12.8668 29.7334 0.600098 26.6667 0.600098 37.4H37.4001C37.4001 26.6667 25.1334 29.7334 23.6001 25.1334Z" fill="#EB8671"/>
</svg>
