<svg width="46" height="46" viewBox="0 0 46 46" fill="none" xmlns="http://www.w3.org/2000/svg">
<path d="M27.6001 29.1334V26.0667C28.2901 25.7248 30.2635 23.3757 30.4705 21.5403C31.0133 21.4989 31.8658 21.0006 32.1173 19.0333C32.2522 17.9768 31.7156 17.3834 31.3905 17.1964C31.3905 17.1964 32.2001 15.6584 32.2001 13.8016C32.2001 10.0786 30.7388 6.90156 27.6001 6.90156C27.6001 6.90156 26.5099 4.60156 23.0001 4.60156C16.4957 4.60156 13.8001 8.77376 13.8001 13.8016C13.8001 15.4944 14.6097 17.1964 14.6097 17.1964C14.2846 17.3834 13.748 17.9784 13.8829 19.0333C14.1344 21.0006 14.9869 21.4989 15.5297 21.5403C15.7367 23.3757 17.7101 25.7248 18.4001 26.0667V29.1334C16.8668 33.7334 4.6001 30.6667 4.6001 41.4H41.4001C41.4001 30.6667 29.1334 33.7334 27.6001 29.1334Z" fill="#EB8671"/>
</svg>
