<svg width="38" height="38" viewBox="0 0 38 38" fill="none" xmlns="http://www.w3.org/2000/svg">
<path id="searchIconPath" d="M15.9334 0.599365C7.48323 0.599365 0.600098 7.48249 0.600098 15.9327C0.600098 24.3829 7.48323 31.266 15.9334 31.266C19.6081 31.266 22.9828 29.9611 25.6276 27.7951L34.7826 36.9501C34.9239 37.0973 35.0932 37.2148 35.2804 37.2957C35.4677 37.3767 35.6692 37.4194 35.8732 37.4215C36.0772 37.4236 36.2796 37.3849 36.4685 37.3078C36.6573 37.2307 36.8289 37.1167 36.9732 36.9724C37.1174 36.8282 37.2314 36.6566 37.3086 36.4677C37.3857 36.2788 37.4243 36.0765 37.4222 35.8725C37.4202 35.6685 37.3774 35.467 37.2965 35.2797C37.2155 35.0924 37.098 34.9232 36.9509 34.7819L27.7958 25.6268C29.9619 22.982 31.2668 19.6073 31.2668 15.9327C31.2668 7.48249 24.3836 0.599365 15.9334 0.599365ZM15.9334 3.66603C22.7263 3.66603 28.2001 9.13984 28.2001 15.9327C28.2001 22.7256 22.7263 28.1994 15.9334 28.1994C9.14058 28.1994 3.66676 22.7256 3.66676 15.9327C3.66676 9.13984 9.14058 3.66603 15.9334 3.66603Z" fill="#EB8671"/>
</svg>
