<svg width="42" height="43" viewBox="0 0 42 43" fill="none" xmlns="http://www.w3.org/2000/svg">
<path d="M5 0C2.25 0 0 2.25 0 5V37C0 39.75 2.25 42 5 42H21.832C21.9394 42.0176 22.0508 42.0176 22.1582 42H27.832C27.9394 42.0176 28.0508 42.0176 28.1582 42H37C39.75 42 42 39.75 42 37V5C42 2.25 39.75 0 37 0H5ZM5 2H37C38.668 2 40 3.33203 40 5V37C40 38.668 38.668 40 37 40H29V26H32.8203L34.2207 19H29V17C29 16.4434 29.0527 16.3984 29.2402 16.2773C29.4277 16.1562 30.0058 16 31 16H34V10.3691L33.4297 10.0977C33.4297 10.0977 31.1328 9 28 9C25.75 9 23.9023 9.89648 22.7187 11.375C21.5351 12.8535 21 14.834 21 17V19H18V26H21V40H5C3.33203 40 2 38.668 2 37V5C2 3.33203 3.33203 2 5 2ZM28 11C30.0781 11 31.3867 11.459 32 11.7012V14H31C29.8496 14 28.9277 14.0957 28.1504 14.5996C27.373 15.1035 27 16.0605 27 17V21H31.7793L31.1797 24H27V40H23V24H20V21H23V17C23 15.166 23.4648 13.6465 24.2812 12.625C25.0976 11.6035 26.25 11 28 11Z" fill="#EB8671"/>
</svg>
