<svg width="50" height="50" viewBox="0 0 50 50" fill="none" xmlns="http://www.w3.org/2000/svg">
<path d="M16 3C8.83203 3 3 8.83203 3 16V34C3 41.168 8.83203 47 16 47H34C41.168 47 47 41.168 47 34V16C47 8.83203 41.168 3 34 3H16ZM16 5H34C40.0859 5 45 9.91406 45 16V34C45 40.0859 40.0859 45 34 45H16C9.91406 45 5 40.0859 5 34V16C5 9.91406 9.91406 5 16 5ZM37 11C35.8945 11 35 11.8945 35 13C35 14.1055 35.8945 15 37 15C38.1055 15 39 14.1055 39 13C39 11.8945 38.1055 11 37 11ZM25 14C18.9375 14 14 18.9375 14 25C14 31.0625 18.9375 36 25 36C31.0625 36 36 31.0625 36 25C36 18.9375 31.0625 14 25 14ZM25 16C29.9824 16 34 20.0176 34 25C34 29.9824 29.9824 34 25 34C20.0176 34 16 29.9824 16 25C16 20.0176 20.0176 16 25 16Z" fill="#EB8671"/>
</svg>
