<svg width="44" height="44" viewBox="0 0 44 44" fill="none" xmlns="http://www.w3.org/2000/svg">
<path d="M13 0C5.83203 0 0 5.83203 0 13V31C0 38.168 5.83203 44 13 44H31C38.168 44 44 38.168 44 31V13C44 5.83203 38.168 0 31 0H13ZM13 2H31C37.0859 2 42 6.91406 42 13V31C42 37.0859 37.0859 42 31 42H13C6.91406 42 2 37.0859 2 31V13C2 6.91406 6.91406 2 13 2ZM34 8C32.8945 8 32 8.89453 32 10C32 11.1055 32.8945 12 34 12C35.1055 12 36 11.1055 36 10C36 8.89453 35.1055 8 34 8ZM22 11C15.9375 11 11 15.9375 11 22C11 28.0625 15.9375 33 22 33C28.0625 33 33 28.0625 33 22C33 15.9375 28.0625 11 22 11ZM22 13C26.9824 13 31 17.0176 31 22C31 26.9824 26.9824 31 22 31C17.0176 31 13 26.9824 13 22C13 17.0176 17.0176 13 22 13Z" fill="#EB8671"/>
</svg>
