<svg width="42" height="46" viewBox="0 0 42 46" fill="none" xmlns="http://www.w3.org/2000/svg">
<path d="M20.4263 3.95923e-05C19.063 0.00785226 17.6958 0.0898834 16.3169 0.257852C13.6802 0.582071 11.0669 1.12113 8.55909 2.27348C4.5708 4.10551 1.74268 7.21488 0.922365 11.7344C0.574709 13.6407 0.293459 15.5743 0.133303 17.5196C-0.175291 21.2969 0.0161148 25.086 1.08643 28.8086C1.93018 31.7422 3.48487 34.3789 6.20752 36.0899C7.35987 36.8125 8.8794 37.1641 9.67237 37.5313C9.89502 37.6368 9.94971 37.6993 9.96143 37.7149C9.97315 37.7266 10.0044 37.7539 10.0005 37.9883C9.97315 40.3789 10.0005 45.0039 10.0005 45.0039L10.0044 46H11.7896L12.0786 45.7188C12.0786 45.7188 16.6138 41.3555 18.2544 39.5586C18.5513 39.2383 18.7036 39.0586 18.7349 39.0391C18.7622 39.0196 18.7153 39.0079 19.02 39C21.1724 38.9571 23.3208 38.875 25.4692 38.7579C28.3013 38.6016 31.188 38.3321 33.9653 37.1719C36.3833 36.1602 38.4028 34.5079 39.6255 32.0313C40.8755 29.4922 41.5435 26.8008 41.7935 24.0157C42.2075 19.3789 42.063 14.7344 40.7818 10.1563C40.0278 7.4727 38.5122 5.20316 36.188 3.6016C33.4067 1.68754 30.27 0.96879 27.1997 0.511758C25.4067 0.246133 23.6021 0.0703523 21.7896 0.0156646C21.3364 0.00394593 20.8833 -0.00386674 20.4263 3.95923e-05ZM21.7349 2.01566C23.4575 2.06254 25.1802 2.23051 26.9067 2.48832C29.8677 2.92973 32.6607 3.6016 35.0552 5.25004C36.9966 6.58598 38.2075 8.39066 38.856 10.6914C40.0513 14.9727 40.2036 19.3594 39.8013 23.8399C39.5708 26.4219 38.9575 28.8555 37.8286 31.1485C36.8325 33.1719 35.2778 34.4571 33.1919 35.3282C30.77 36.3399 28.1372 36.6094 25.3638 36.7618C23.2388 36.8789 21.1099 36.9571 18.981 37C18.4458 37.0118 17.9224 37.1524 17.5513 37.4258C17.1802 37.6993 17.0122 37.9532 16.7817 38.2032C15.6099 39.4844 13.2739 41.7383 12.0005 42.9727C11.9927 41.4805 11.981 39.6758 12.0005 38.0118C12.0083 37.5 11.8911 36.9766 11.5981 36.5625C11.3052 36.1485 10.9028 35.8985 10.5161 35.7188C9.38721 35.1954 7.91065 34.7969 7.27002 34.3946C5.03174 32.9883 3.76221 30.8789 3.0083 28.2539C2.02002 24.8204 1.83252 21.2852 2.12549 17.6875C2.28174 15.8204 2.55127 13.9493 2.89112 12.0938C3.60205 8.18363 5.83643 5.7227 9.39112 4.08988C11.6372 3.05863 14.0357 2.55082 16.563 2.24223C18.2857 2.03129 20.0083 1.96488 21.7349 2.01566ZM22.1567 7.00004C21.3325 7.00004 20.5317 7.09379 19.7544 7.26566C19.2192 7.39066 18.8794 7.92582 19.0005 8.46488C19.1216 9.00395 19.6607 9.33988 20.1997 9.21879C20.8286 9.07426 21.4849 9.00004 22.1567 9.00004C27.0396 9.00004 30.9771 12.9375 30.9771 17.8164C30.9771 18.4922 30.9028 19.1485 30.7583 19.7813C30.6372 20.3164 30.9732 20.8555 31.5122 20.9766C32.0513 21.0977 32.5864 20.7579 32.7075 20.2188C32.8833 19.4454 32.9771 18.6446 32.9771 17.8164C32.9771 11.8555 28.1216 7.00004 22.1567 7.00004ZM12.1802 9.00395C12.0161 8.99613 11.8481 9.00785 11.6724 9.04692C9.85596 9.44926 8.05127 10.7657 8.00049 13.1172C8.05127 13.4454 8.04737 13.7969 8.16846 14.0938C8.76221 15.5469 9.27784 17.0469 10.02 18.4219C13.6333 25.1016 19.0982 29.7461 26.063 32.6954C26.895 33.0469 27.7544 33.1211 28.5942 32.7696C29.7505 32.2891 30.731 31.5469 31.3833 30.4805C32.2778 29.0157 32.2896 28 30.8169 26.918C29.8521 26.2071 28.9028 25.4766 27.9263 24.7813C26.438 23.7266 24.8286 23.543 23.7192 25.3946C23.6607 25.4883 23.5747 25.5664 23.5005 25.6446C22.9302 26.25 22.231 26.3985 21.4888 26.0938C18.6724 24.9336 16.4966 23.0625 15.1841 20.2774C14.4107 18.6407 14.6216 17.8204 16.0669 16.7305C16.2114 16.625 16.3482 16.5118 16.481 16.3907C17.1138 15.8125 17.2817 15.125 16.9067 14.3477C16.0591 12.5743 14.9302 10.9922 13.5005 9.62895C13.1138 9.26176 12.6724 9.03129 12.1802 9.00395ZM22.1411 10C21.6997 10 21.2622 10.0352 20.8325 10.1094C20.4692 10.1563 20.1607 10.3985 20.0278 10.7383C19.895 11.0821 19.9614 11.4688 20.1958 11.75C20.4341 12.0274 20.8091 12.1563 21.1685 12.0782C21.481 12.0274 21.8091 12 22.1411 12C25.3911 12 28.0005 14.6094 28.0005 17.8594C28.0005 18.1914 27.9732 18.5196 27.9224 18.8321C27.8442 19.1914 27.9732 19.5664 28.2505 19.8047C28.5317 20.0391 28.9185 20.1055 29.2622 19.9727C29.6021 19.8399 29.8442 19.5313 29.8911 19.168C29.9653 18.7383 30.0005 18.3008 30.0005 17.8594C30.0005 13.5313 26.4692 10 22.1411 10ZM22.0005 13C21.6411 12.9961 21.3052 13.1836 21.1216 13.4961C20.9419 13.8086 20.9419 14.1914 21.1216 14.5039C21.3052 14.8164 21.6411 15.0039 22.0005 15C23.6685 15 25.0005 16.3321 25.0005 18C24.9966 18.3594 25.1841 18.6954 25.4966 18.8789C25.8091 19.0586 26.1919 19.0586 26.5044 18.8789C26.8169 18.6954 27.0044 18.3594 27.0005 18C27.0005 15.25 24.7505 13 22.0005 13Z" fill="#EB8671"/>
</svg>
