<svg width="50" height="50" viewBox="0 0 50 50" fill="none" xmlns="http://www.w3.org/2000/svg">
<path d="M25 1.99951C12.3099 1.99951 2 12.3094 2 24.9995C2 29.0789 3.11849 32.8849 4.98437 36.2078L2.03776 46.73C1.94141 47.0724 2.03516 47.4409 2.28255 47.6961C2.52995 47.9513 2.89453 48.0555 3.24089 47.9696L14.2109 45.2508C17.4349 46.9722 21.0924 47.9995 25 47.9995C37.6901 47.9995 48 37.6896 48 24.9995C48 12.3094 37.6901 1.99951 25 1.99951ZM25 3.99951C36.6094 3.99951 46 13.3901 46 24.9995C46 36.6089 36.6094 45.9995 25 45.9995C21.2786 45.9995 17.7917 45.0295 14.7617 43.3329C14.5404 43.2092 14.2799 43.1753 14.0325 43.2352L4.42578 45.6167L7.0013 36.4253C7.07682 36.1623 7.04036 35.881 6.90234 35.6453C5.0612 32.523 4 28.8901 4 24.9995C4 13.3901 13.3906 3.99951 25 3.99951ZM16.6432 12.9995C16.0013 12.9995 15.0859 13.2378 14.3346 14.049C13.8828 14.5347 12 16.3693 12 19.5933C12 22.9552 14.332 25.855 14.6133 26.2287H14.6159V26.23C14.5885 26.1948 14.9727 26.7521 15.487 27.4201C16 28.0868 16.7174 28.9644 17.6198 29.9136C19.4232 31.812 21.9583 34.0073 25.1055 35.3498C26.5547 35.9657 27.6979 36.3394 28.5651 36.6115C30.1693 37.1154 31.6315 37.0386 32.7305 36.8771C33.5521 36.756 34.457 36.3602 35.3516 35.7938C36.2461 35.2287 37.1237 34.5243 37.5104 33.4552C37.7865 32.6883 37.9271 31.9787 37.9792 31.3967C38.0039 31.105 38.0078 30.8472 37.9883 30.6089C37.9687 30.3706 37.9896 30.1883 37.7682 29.8237C37.3021 29.0594 36.7747 29.0399 36.2253 28.7677C35.9193 28.6154 35.0482 28.1909 34.1758 27.7756C33.3034 27.3589 32.5495 26.9917 32.0846 26.8263C31.7904 26.7196 31.431 26.5672 30.9141 26.6271C30.3971 26.6857 29.8854 27.0581 29.5885 27.4995C29.306 27.9175 28.1706 29.2573 27.8242 29.6519C27.819 29.6493 27.8503 29.6623 27.7135 29.5959C27.2852 29.3836 26.7617 29.2026 25.987 28.7938C25.2109 28.3862 24.2422 27.7821 23.1823 26.8472V26.8446C21.6029 25.4552 20.4974 23.7105 20.1484 23.1245C20.1719 23.0972 20.1458 23.131 20.1953 23.0815L20.1979 23.0789C20.5534 22.7287 20.8698 22.3094 21.1367 22.0008C21.5156 21.5659 21.6823 21.1805 21.8633 20.8211C22.224 20.1063 22.0234 19.3185 21.8151 18.9032V18.9019C21.8294 18.9305 21.7018 18.6493 21.5651 18.325C21.4271 18.0008 21.2513 17.5789 21.0651 17.1297C20.6901 16.2326 20.2721 15.2248 20.0234 14.6336V14.6323C19.7305 13.937 19.3346 13.437 18.8164 13.1948C18.2982 12.9526 17.8411 13.0216 17.8229 13.0203H17.8203C17.4505 13.0034 17.0456 12.9995 16.6432 12.9995ZM16.6432 14.9995C17.0286 14.9995 17.4089 15.0047 17.7266 15.019C18.0547 15.036 18.0339 15.0373 17.9714 15.0073C17.9062 14.9774 17.9935 14.9683 18.1797 15.4097C18.4232 15.9878 18.8437 16.9982 19.2187 17.9006C19.4062 18.3511 19.582 18.773 19.7227 19.105C19.8633 19.437 19.9388 19.6219 20.0273 19.799V19.8003L20.0299 19.8029C20.1159 19.9735 20.1081 19.8641 20.0781 19.924C19.8672 20.342 19.8385 20.4448 19.625 20.6909C19.2995 21.0659 18.9687 21.4826 18.793 21.6558C18.6393 21.8068 18.362 22.0412 18.1901 22.5021C18.0156 22.9618 18.0977 23.5946 18.375 24.0659C18.7448 24.6935 19.9648 26.6792 21.8594 28.3472C23.0534 29.3993 24.1641 30.0959 25.0521 30.5646C25.9414 31.0321 26.6641 31.3055 26.8255 31.3862C27.2109 31.5763 27.6302 31.7248 28.1185 31.6662C28.6081 31.6063 29.0286 31.3107 29.2969 31.0073L29.2982 31.006C29.6562 30.6011 30.7161 29.3901 31.224 28.644C31.2461 28.6519 31.2396 28.6453 31.4075 28.7065V28.7092H31.4102C31.487 28.7365 32.4544 29.1688 33.3164 29.5802C34.1784 29.9904 35.0534 30.4175 35.3372 30.5581C35.7487 30.7612 35.9427 30.894 35.9922 30.894C35.9961 30.9826 35.9987 31.0776 35.9857 31.2222C35.9518 31.6232 35.8437 32.1792 35.6289 32.7756C35.5234 33.0659 34.9753 33.6675 34.2825 34.105C33.5911 34.5425 32.7487 34.8524 32.4375 34.898C31.5 35.036 30.3867 35.0868 29.1641 34.7026C28.3164 34.437 27.2591 34.092 25.8906 33.5099C23.1146 32.325 20.7552 30.3107 19.0703 28.5373C18.2279 27.6493 17.5521 26.8237 17.0716 26.1987C16.5924 25.575 16.3841 25.2508 16.2083 25.0217L16.207 25.019C15.8971 24.6089 14 21.9709 14 19.5933C14 17.0776 15.168 16.0907 15.8008 15.4097C16.1328 15.0516 16.4961 14.9995 16.6419 14.9995H16.6432Z" fill="#EB8671"/>
</svg>
