<svg width="46" height="46" viewBox="0 0 46 46" fill="none" xmlns="http://www.w3.org/2000/svg">
<path d="M23 -0.000488281C10.3099 -0.000488281 0 10.3094 0 22.9995C0 27.0789 1.11849 30.8849 2.98437 34.2078L0.0377603 44.73C-0.0585937 45.0724 0.0351562 45.4409 0.282552 45.6961C0.529948 45.9513 0.894531 46.0555 1.24089 45.9696L12.2109 43.2508C15.4349 44.9722 19.0924 45.9995 23 45.9995C35.6901 45.9995 46 35.6896 46 22.9995C46 10.3094 35.6901 -0.000488281 23 -0.000488281ZM23 1.99951C34.6094 1.99951 44 11.3901 44 22.9995C44 34.6089 34.6094 43.9995 23 43.9995C19.2786 43.9995 15.7917 43.0295 12.7617 41.3329C12.5404 41.2092 12.2799 41.1753 12.0325 41.2352L2.42578 43.6167L5.0013 34.4253C5.07682 34.1623 5.04036 33.881 4.90234 33.6453C3.0612 30.523 2 26.8901 2 22.9995C2 11.3901 11.3906 1.99951 23 1.99951ZM14.6432 10.9995C14.0013 10.9995 13.0859 11.2378 12.3346 12.049C11.8828 12.5347 10 14.3693 10 17.5933C10 20.9552 12.332 23.855 12.6133 24.2287H12.6159V24.23C12.5885 24.1948 12.9727 24.7521 13.487 25.4201C14 26.0868 14.7174 26.9644 15.6198 27.9136C17.4232 29.812 19.9583 32.0073 23.1055 33.3498C24.5547 33.9657 25.6979 34.3394 26.5651 34.6115C28.1693 35.1154 29.6315 35.0386 30.7305 34.8771C31.5521 34.756 32.457 34.3602 33.3516 33.7938C34.2461 33.2287 35.1237 32.5243 35.5104 31.4552C35.7865 30.6883 35.9271 29.9787 35.9792 29.3967C36.0039 29.105 36.0078 28.8472 35.9883 28.6089C35.9687 28.3706 35.9896 28.1883 35.7682 27.8237C35.3021 27.0594 34.7747 27.0399 34.2253 26.7677C33.9193 26.6154 33.0482 26.1909 32.1758 25.7756C31.3034 25.3589 30.5495 24.9917 30.0846 24.8263C29.7904 24.7196 29.431 24.5672 28.9141 24.6271C28.3971 24.6857 27.8854 25.0581 27.5885 25.4995C27.306 25.9175 26.1706 27.2573 25.8242 27.6519C25.819 27.6493 25.8503 27.6623 25.7135 27.5959C25.2852 27.3836 24.7617 27.2026 23.987 26.7938C23.2109 26.3862 22.2422 25.7821 21.1823 24.8472V24.8446C19.6029 23.4552 18.4974 21.7105 18.1484 21.1245C18.1719 21.0972 18.1458 21.131 18.1953 21.0815L18.1979 21.0789C18.5534 20.7287 18.8698 20.3094 19.1367 20.0008C19.5156 19.5659 19.6823 19.1805 19.8633 18.8211C20.224 18.1063 20.0234 17.3185 19.8151 16.9032V16.9019C19.8294 16.9305 19.7018 16.6493 19.5651 16.325C19.4271 16.0008 19.2513 15.5789 19.0651 15.1297C18.6901 14.2326 18.2721 13.2248 18.0234 12.6336V12.6323C17.7305 11.937 17.3346 11.437 16.8164 11.1948C16.2982 10.9526 15.8411 11.0216 15.8229 11.0203H15.8203C15.4505 11.0034 15.0456 10.9995 14.6432 10.9995ZM14.6432 12.9995C15.0286 12.9995 15.4089 13.0047 15.7266 13.019C16.0547 13.036 16.0339 13.0373 15.9714 13.0073C15.9062 12.9774 15.9935 12.9683 16.1797 13.4097C16.4232 13.9878 16.8437 14.9982 17.2187 15.9006C17.4062 16.3511 17.582 16.773 17.7227 17.105C17.8633 17.437 17.9388 17.6219 18.0273 17.799V17.8003L18.0299 17.8029C18.1159 17.9735 18.1081 17.8641 18.0781 17.924C17.8672 18.342 17.8385 18.4448 17.625 18.6909C17.2995 19.0659 16.9687 19.4826 16.793 19.6558C16.6393 19.8068 16.362 20.0412 16.1901 20.5021C16.0156 20.9618 16.0977 21.5946 16.375 22.0659C16.7448 22.6935 17.9648 24.6792 19.8594 26.3472C21.0534 27.3993 22.1641 28.0959 23.0521 28.5646C23.9414 29.0321 24.6641 29.3055 24.8255 29.3862C25.2109 29.5763 25.6302 29.7248 26.1185 29.6662C26.6081 29.6063 27.0286 29.3107 27.2969 29.0073L27.2982 29.006C27.6562 28.6011 28.7161 27.3901 29.224 26.644C29.2461 26.6519 29.2396 26.6453 29.4075 26.7065V26.7092H29.4102C29.487 26.7365 30.4544 27.1688 31.3164 27.5802C32.1784 27.9904 33.0534 28.4175 33.3372 28.5581C33.7487 28.7612 33.9427 28.894 33.9922 28.894C33.9961 28.9826 33.9987 29.0776 33.9857 29.2222C33.9518 29.6232 33.8437 30.1792 33.6289 30.7756C33.5234 31.0659 32.9753 31.6675 32.2825 32.105C31.5911 32.5425 30.7487 32.8524 30.4375 32.898C29.5 33.036 28.3867 33.0868 27.1641 32.7026C26.3164 32.437 25.2591 32.092 23.8906 31.5099C21.1146 30.325 18.7552 28.3107 17.0703 26.5373C16.2279 25.6493 15.5521 24.8237 15.0716 24.1987C14.5924 23.575 14.3841 23.2508 14.2083 23.0217L14.207 23.019C13.8971 22.6089 12 19.9709 12 17.5933C12 15.0776 13.168 14.0907 13.8008 13.4097C14.1328 13.0516 14.4961 12.9995 14.6419 12.9995H14.6432Z" fill="#EB8671"/>
</svg>
