<svg width="41" height="44" viewBox="0 0 41 44" fill="none" xmlns="http://www.w3.org/2000/svg">
<path d="M16.6346 0.416884C16.3678 0.413467 16.1042 0.474534 15.8661 0.594888C15.628 0.715243 15.4225 0.891324 15.2671 1.10815C15.1117 1.32498 15.0109 1.57615 14.9734 1.84028C14.9359 2.10441 14.9628 2.37369 15.0517 2.62522H10.1649C8.12878 2.62522 6.24047 3.63687 5.11201 5.32956L2.49824 9.25022H2.28043C2.06095 9.24711 1.84305 9.28766 1.63939 9.3695C1.43572 9.45134 1.25035 9.57285 1.09405 9.72695C0.93775 9.88106 0.813637 10.0647 0.728924 10.2672C0.64421 10.4697 0.600586 10.687 0.600586 10.9065C0.600586 11.126 0.64421 11.3433 0.728924 11.5458C0.813637 11.7482 0.93775 11.9319 1.09405 12.086C1.25035 12.2401 1.43572 12.3616 1.63939 12.4434C1.84305 12.5253 2.06095 12.5658 2.28043 12.5627H38.7179C38.9374 12.5658 39.1553 12.5253 39.359 12.4434C39.5626 12.3616 39.748 12.2401 39.9043 12.086C40.0606 11.9319 40.1847 11.7482 40.2694 11.5458C40.3541 11.3433 40.3978 11.126 40.3978 10.9065C40.3978 10.687 40.3541 10.4697 40.2694 10.2672C40.1847 10.0647 40.0606 9.88106 39.9043 9.72695C39.748 9.57285 39.5626 9.45134 39.359 9.3695C39.1553 9.28766 38.9374 9.24711 38.7179 9.25022H38.5001L35.8863 5.32956C34.7579 3.63687 32.8685 2.62522 30.8335 2.62522H25.9467C26.0356 2.37369 26.0624 2.10441 26.0249 1.84028C25.9874 1.57615 25.8867 1.32498 25.7313 1.10815C25.5758 0.891324 25.3703 0.715243 25.1322 0.594888C24.8942 0.474534 24.6305 0.413467 24.3638 0.416884H16.6346ZM3.90648 15.8752L6.28303 38.0534C6.61428 41.1473 9.2099 43.4794 12.3214 43.4794H28.6769C31.7873 43.4794 34.383 41.1473 34.7153 38.0534L37.0919 15.8752H3.90648Z" fill="#272626"/>
</svg>
